# xmcd
#
# Track frame offsets: 
#        150
#        20680
#        40131
#        54115
#        73209
#        90841
#        101361
#        116459
#        134045
#        153873
#        169698
#        187770
#
# Disc length: 2737 seconds
#
# Revision: 0
# Processed by: cddbd v1.5.1PL2 Copyright (c) Steve Scherf et al.
# Submitted via: ExactAudioCopy v0.95a5
#
DISCID=8e0aaf0c
DTITLE=The Texas Sapphires - Valley So Steep
DYEAR=2006
DGENRE=Bluegrass
TTITLE0=The Emerald Outlaw
TTITLE1=Driftin' In
TTITLE2=Ladyfest, TX
TTITLE3=Bring out the Bible (We Ain't Got a Prayer)
TTITLE4=Break This Fool
TTITLE5=Dirty Me, Dirty Me (I'm Disgusted with Myself)
TTITLE6=Dirty Tattered House Shoes
TTITLE7=Deep Gap Blue
TTITLE8=Cold Silver Ring
TTITLE9=Down Hard
TTITLE10=Barstow Barstool
TTITLE11=Las Vegas
EXTD=
EXTT0=
EXTT1=
EXTT2=
EXTT3=
EXTT4=
EXTT5=
EXTT6=
EXTT7=
EXTT8=
EXTT9=
EXTT10=
EXTT11=
PLAYORDER=
